<?xml version="1.0" standalone="no"?>
<!DOCTYPE svg PUBLIC "-//W3C//DTD SVG 20010904//EN"
 "http://www.w3.org/TR/2001/REC-SVG-20010904/DTD/svg10.dtd">
<svg version="1.0" xmlns="http://www.w3.org/2000/svg"
 width="225.000000pt" height="225.000000pt" viewBox="0 0 225.000000 225.000000"
 preserveAspectRatio="xMidYMid meet">
<metadata>
Created by potrace 1.14, written by Peter Selinger 2001-2017
</metadata>
<g transform="translate(0.000000,225.000000) scale(0.100000,-0.100000)"
fill="#000000" stroke="none">
<path d="M1020 1960 c-199 -34 -378 -214 -422 -423 -11 -49 -10 -59 2 -67 19
-11 23 -4 55 98 70 220 243 352 465 352 147 0 256 -45 359 -149 174 -175 184
-426 30 -739 -73 -149 -76 -158 -84 -275 -10 -142 -31 -263 -55 -313 -24 -50
-71 -90 -127 -109 -51 -18 -160 -12 -208 11 -44 20 -125 96 -125 116 0 7 -9
24 -19 37 -18 24 -19 24 -29 5 -23 -44 57 -152 143 -194 89 -43 194 -46 280
-6 118 54 164 153 180 386 11 169 13 175 74 297 118 234 150 414 106 587 -46
179 -192 327 -371 375 -53 14 -198 21 -254 11z"/>
<path d="M1060 1719 c-122 -15 -219 -105 -251 -232 -11 -46 -11 -48 17 -69 56
-42 216 -212 235 -251 21 -40 22 -100 4 -169 -6 -24 -4 -28 13 -28 26 0 55 60
54 114 -2 76 -30 124 -147 252 -44 47 -80 91 -80 97 0 31 169 33 253 3 114
-41 175 -114 176 -211 1 -78 -31 -144 -119 -245 -87 -100 -105 -137 -99 -208
5 -71 -1 -89 -36 -107 -35 -18 -73 -19 -103 -3 -38 20 -47 40 -45 102 3 69
-11 82 -35 31 -22 -46 -21 -70 3 -121 37 -76 132 -95 216 -44 41 26 49 48 46
130 -2 75 8 97 101 206 32 38 72 97 89 132 73 147 14 295 -146 368 -84 38
-159 46 -294 29 -53 -7 -54 -6 -47 17 19 61 109 142 174 155 62 12 144 7 181
-12 19 -10 59 -40 88 -68 36 -33 57 -46 64 -39 22 22 -51 110 -124 148 -39 20
-127 31 -188 23z"/>
</g>
</svg>
